# xmcd
#
# Track frame offsets:
#	150
#	8927
#	18985
#	27401
#	38523
#	44461
#	56399
#	57557
#	63781
#	68701
#	76259
#	76877
#	82941
#	87534
#	91650
#	100122
#	104527
#	113800
#	118877
#	124253
#	131106
#	139973
#	145774
#
# Disc length: 1964 seconds
#
# Revision: 1
# Processed by: cddbd v1.5.2PL0 Copyright (c) Steve Scherf et al.
# Submitted via: audiograbber 1.83.01
#
DISCID=3207aa17
DTITLE=Liberticide-Feeling Fine-Bizarre X - Split
DYEAR=2001
DGENRE=Punk Grind
TTITLE0=Liberticide - you amount to nothing
TTITLE1=Liberticide - liberticide
TTITLE2=Liberticide - destimated for demise
TTITLE3=Liberticide - stand up
TTITLE4=Liberticide - pointless
TTITLE5=Liberticide - sacrifice
TTITLE6=Feeling Fine - 10 second breakout
TTITLE7=Feeling Fine - the doors
TTITLE8=Feeling Fine - born dead
TTITLE9=Feeling Fine - the d-song
TTITLE10=Feeling Fine - Intro
TTITLE11=Feeling Fine - my dear friend a-hole
TTITLE12=Feeling Fine - mophead boy
TTITLE13=Bizarre X - intro
TTITLE14=Bizarre X - hate us
TTITLE15=Bizarre X - besitzanspruch
TTITLE16=Bizarre X - höllenhunde
TTITLE17=Bizarre X - leer
TTITLE18=Bizarre X - descend on youth
TTITLE19=Bizarre X - allmächtiger
TTITLE20=Bizarre X - world under my fingernail
TTITLE21=Bizarre X - ewig gestrig
TTITLE22=Bizarre X - outro
EXTD=
EXTT0=
EXTT1=
EXTT2=
EXTT3=
EXTT4=
EXTT5=
EXTT6=
EXTT7=
EXTT8=
EXTT9=
EXTT10=
EXTT11=
EXTT12=
EXTT13=
EXTT14=
EXTT15=
EXTT16=
EXTT17=
EXTT18=
EXTT19=
EXTT20=
EXTT21=
EXTT22=
PLAYORDER=
